<svg width="28" height="28" viewBox="0 0 28 28" fill="none" xmlns="http://www.w3.org/2000/svg">
  <path d="M9.33 21.52C7.39 25.87 11.47 26.93 14.48 24.45C15.37 26.23 18.68 24.14 19.87 21.98C22.5 17.21 21.44 12.36 21.15 11.36C18.28 4.53 9.44 4.52 7.84 11.38C7.47 12.58 7.46 13.95 7.24 15.37C7.13 16.09 7.06 16.54 6.78 17.29C6.62 17.72 6.4 18.11 6.06 18.76C5.52 19.77 5.75 21.71 8.5 20.7L9.33 21.52Z" fill="white"/>
  <ellipse cx="14.9" cy="13.5" rx="1.5" ry="2.4" fill="black"/>
  <ellipse cx="18.2" cy="13.5" rx="1.5" ry="2.4" fill="black"/>
</svg>
