<svg width="56" height="56" viewBox="0 0 56 56" fill="none" xmlns="http://www.w3.org/2000/svg">
  <path d="M18.66 43.04C14.78 51.74 22.94 53.86 28.96 48.9C30.74 52.46 37.36 48.28 39.74 43.96C44.99 34.42 42.88 24.72 42.3 22.72C36.56 9.06 18.88 9.04 15.68 22.76C14.94 25.16 14.92 27.9 14.48 30.74C14.26 32.18 14.12 33.08 13.56 34.58C13.24 35.44 12.8 36.22 12.12 37.52C11.04 39.54 11.5 43.42 17 41.4L18.66 43.04Z" fill="#C8C8C8"/>
  <ellipse cx="29.8" cy="27" rx="3" ry="4.8" fill="#1a1a2e"/>
  <ellipse cx="36.4" cy="27" rx="3" ry="4.8" fill="#1a1a2e"/>
</svg>
